<?xml version="1.0" encoding="UTF-8"?>
<!DOCTYPE svg PUBLIC "-//W3C//DTD SVG 1.1//EN" "http://www.w3.org/Graphics/SVG/1.1/DTD/svg11.dtd">
<!-- Creator: CorelDRAW -->
<svg xmlns="http://www.w3.org/2000/svg" xml:space="preserve" width="100%" height="100%" version="1.1" style="shape-rendering:geometricPrecision; text-rendering:geometricPrecision; image-rendering:optimizeQuality; fill-rule:evenodd; clip-rule:evenodd"
viewBox="0 0 1710.27 1710.27"
 xmlns:xlink="http://www.w3.org/1999/xlink"
 xmlns:xodm="http://www.corel.com/coreldraw/odm/2003">
 <defs>
  <style type="text/css">
   <![CDATA[
    .fil1 {fill:none}
    .fil0 {fill:#F0EFED}
   ]]>
  </style>
 </defs>
 <g id="Слой_x0020_1">
  <metadata id="CorelCorpID_0Corel-Layer"/>
  <g id="_1797860599680">
   <path class="fil0" d="M358.55 470.26c-19.16,153.99 60.22,655.29 94.63,826.17 30.77,152.8 64.11,203.6 235.61,243.96 121.57,28.61 323.34,27.25 433.22,-34.25 81.77,-45.75 55.35,-82.78 40.14,-161.97 -33.77,-175.78 -107.73,-344.51 -224.03,-486.57 -161.01,-196.69 -393.61,-179.5 -579.57,-387.34z"/>
   <path class="fil0" d="M655.6 157.51c-152.42,25.58 -212.41,137.09 -238.49,259.27 -20.23,94.7 222.19,187.77 299.08,209.54 101.3,28.68 203.43,2.62 297.15,-31.25 65.05,-23.5 185.88,-65.13 239.61,-102.1 92.77,-63.83 28.69,-268.05 -174.05,-249.07 -104.45,9.77 -47.18,13.62 -132.3,-27.82 -84.35,-41.06 -194.38,-74.78 -291,-58.57z"/>
   <path class="fil0" d="M869.5 715.67c42.06,55.36 116.92,65.34 227.85,270.72 99.72,184.63 106.54,346.12 122.33,379.48 2.94,0.66 45.37,-187.77 49.73,-212.91 23.71,-136.63 98.43,-597.84 88.85,-685.05 -80.44,114.06 -352.09,186.29 -488.76,247.76z"/>
  </g>
  <rect class="fil1" x="-0.01" y="-0.01" width="1710.27" height="1710.27"/>
 </g>
</svg>
